<svg width="60" height="60" viewBox="0 0 60 60" fill="none" xmlns="http://www.w3.org/2000/svg">
<path fill-rule="evenodd" clip-rule="evenodd" d="M29.193 17.5317C29.0434 16.5982 28.7771 15.6678 28.3865 14.7597C26.8924 11.2859 23.9115 8.90906 20.5072 8.05273C19.1229 7.70452 18.1569 9.14622 18.7209 10.4575L20.6471 14.9358C21.0835 15.9505 20.6148 17.1268 19.6001 17.5633L15.0306 19.5287C14.016 19.9651 12.8396 19.4964 12.4031 18.4817L10.4769 14.0033C9.91287 12.692 8.20189 12.4018 7.50259 13.6461C5.78278 16.7065 5.45812 20.5052 6.9523 23.9791C8.68271 28.0021 12.4072 30.554 16.4742 30.9765C17.2771 31.06 18.0129 31.5211 18.3319 32.2627L25.8792 49.8095C26.3156 50.8242 27.492 51.2929 28.5067 50.8565L33.0761 48.8911C33.929 48.5243 34.3962 47.6347 34.2643 46.7578C34.3625 46.7756 34.4608 46.7926 34.5592 46.8086C34.924 46.8679 35.2004 47.1774 35.2004 47.547C35.2004 47.9505 35.5275 48.2776 35.9309 48.2776H39.3841C39.8655 48.2776 40.2558 47.8873 40.2558 47.4058C40.2558 46.9916 40.548 46.6371 40.9497 46.5361C41.5145 46.394 42.0735 46.2201 42.6239 46.0145C43.648 45.6319 44.6222 45.147 45.5337 44.571C45.9873 44.2844 46.5841 44.3322 46.9603 44.7147C47.3821 45.1434 48.0714 45.149 48.5001 44.7273L50.5356 42.725C50.9731 42.2945 50.9789 41.5909 50.5485 41.1534C50.168 40.7666 50.1261 40.1637 50.4178 39.7061C50.6763 39.3005 50.9171 38.8817 51.1391 38.4508C51.6969 37.3682 52.1234 36.2332 52.4162 35.0693C52.5173 34.6673 52.872 34.3749 53.2865 34.3749C53.7682 34.3749 54.1587 33.9844 54.1587 33.5027V30.0507C54.1587 29.6469 53.8313 29.3195 53.4275 29.3195C53.0576 29.3195 52.7478 29.0429 52.6884 28.6778C52.6037 28.1576 52.4927 27.6399 52.3552 27.1267C51.8999 25.4273 51.1684 23.8313 50.2027 22.396C49.9279 21.9876 49.961 21.4386 50.3062 21.0877C50.6908 20.6968 50.6857 20.0681 50.2948 19.6835L48.1427 17.5661C47.7319 17.162 47.0714 17.1673 46.6672 17.5781L46.401 17.8486C46.1998 18.0531 45.8815 18.0826 45.6403 17.9274C44.1851 16.9917 42.5995 16.3095 40.9495 15.8944C40.5479 15.7934 40.2558 15.439 40.2558 15.0249C40.2558 14.5436 39.8656 14.1534 39.3843 14.1534H35.9307C35.5274 14.1534 35.2004 14.4804 35.2004 14.8837C35.2004 15.2532 34.9241 15.5626 34.5595 15.6219L34.4842 15.6343C32.6318 15.9447 30.8664 16.5798 29.2627 17.4954C29.2398 17.5085 29.2166 17.5206 29.193 17.5317ZM31.3972 39.926C31.9725 40.3023 32.5873 40.6232 33.2344 40.8816C33.5288 40.9992 33.8273 41.1029 34.1289 41.1926C34.6786 41.356 35.2004 40.9211 35.2004 40.3477C35.2004 39.8412 35.611 39.4306 36.1176 39.4306H39.5371C39.934 39.4306 40.2558 39.7524 40.2558 40.1493V40.6225C40.2558 40.875 40.5014 41.0543 40.7379 40.966C41.103 40.8296 41.4585 40.6734 41.803 40.4987C42.1429 40.3264 42.2001 39.8757 41.9328 39.604C41.7046 39.3721 41.7077 38.9991 41.9396 38.7709L44.7227 36.0332C44.9441 35.8153 45.3002 35.8183 45.518 36.0397L45.5662 36.0886C45.8 36.3263 46.1956 36.2789 46.3483 35.9825C46.4645 35.757 46.5721 35.528 46.6709 35.296C46.8616 34.8486 46.5165 34.3749 46.0301 34.3749C45.6334 34.3749 45.3117 34.0533 45.3117 33.6565V30.236C45.3117 29.7298 45.722 29.3195 46.2282 29.3195H46.5116C46.9373 29.3195 47.2597 28.9326 47.1496 28.5214C46.9445 27.7562 46.6545 27.0228 46.2883 26.3332C46.0855 25.9513 45.5735 25.898 45.2703 26.2062C45.0094 26.4714 44.583 26.4748 44.3178 26.214L41.6298 23.5693C41.3892 23.3326 41.3861 22.9458 41.6227 22.7052C41.9053 22.418 41.8371 21.9404 41.4716 21.771C41.3742 21.7259 41.2762 21.6823 41.1776 21.6402C40.7298 21.4493 40.2558 21.7947 40.2558 22.2814C40.2558 22.6785 39.9339 23.0004 39.5368 23.0004H36.1178C35.6111 23.0004 35.2004 22.5897 35.2004 22.083C35.2004 21.5095 34.6784 21.0745 34.1287 21.238C33.8717 21.3144 33.6183 21.4005 33.369 21.4961C32.9475 21.6577 32.8547 22.1948 33.1712 22.5166C33.4272 22.7768 33.4238 23.1953 33.1636 23.4512L30.6729 25.9014C30.3183 26.2502 29.748 26.2456 29.3992 25.8909C29.0078 25.4931 28.35 25.5427 28.0718 26.0265C27.4763 27.0621 27.0648 28.1904 26.8529 29.3608L31.3972 39.926ZM13.2108 8.58854C13.1604 8.6094 13.11 8.63065 13.0597 8.65227C13.0095 8.6739 12.9594 8.69583 12.9096 8.71808L13.2108 8.58854Z" fill="white"/>
</svg>
